<svg xmlns="http://www.w3.org/2000/svg" viewBox="0 0 512 512" role="img" aria-label="Exxon-bat">
  <defs>
    <linearGradient id="xb-wall-lg" x1="0%" y1="100%" x2="100%" y2="0%">
      <stop offset="0%" stop-color="#1d4ed8"/>
      <stop offset="55%" stop-color="#3b82f6"/>
      <stop offset="100%" stop-color="#f97316"/>
    </linearGradient>
    <linearGradient id="xb-beam-lg" x1="0%" y1="50%" x2="100%" y2="50%">
      <stop offset="0%" stop-color="#fdba74"/>
      <stop offset="100%" stop-color="#ea580c"/>
    </linearGradient>
    <filter id="xb-glow-lg" x="-20%" y="-20%" width="140%" height="140%">
      <feDropShadow dx="0" dy="6" stdDeviation="12" flood-color="#0f172a" flood-opacity="0.4"/>
    </filter>
  </defs>
  <rect width="512" height="512" rx="108" fill="#0f172a"/>
  <g opacity="0.18" stroke="#94a3b8" stroke-width="3">
    <path d="M64 128h384M64 256h384M64 384h384"/>
    <path d="M128 64v384M256 64v384M384 64v384"/>
  </g>
  <path d="M106 362 L256 106 L256 234 L181 362 Z" fill="url(#xb-wall-lg)" filter="url(#xb-glow-lg)"/>
  <path d="M406 362 L256 106 L256 234 L331 362 Z" fill="url(#xb-wall-lg)" opacity="0.88" filter="url(#xb-glow-lg)"/>
  <path d="M256 106 L320 170 L256 214 L192 170 Z" fill="url(#xb-beam-lg)"/>
  <rect x="234" y="214" width="44" height="148" rx="10" fill="#f8fafc" opacity="0.92"/>
  <circle cx="256" cy="373" r="24" fill="#fbbf24"/>
</svg>
