<svg xmlns="http://www.w3.org/2000/svg" viewBox="0 0 48 48" role="img" aria-label="Exxon-bat">
  <defs>
    <linearGradient id="xb-wall" x1="0%" y1="100%" x2="100%" y2="0%">
      <stop offset="0%" stop-color="#1d4ed8"/>
      <stop offset="55%" stop-color="#3b82f6"/>
      <stop offset="100%" stop-color="#f97316"/>
    </linearGradient>
    <linearGradient id="xb-beam" x1="0%" y1="50%" x2="100%" y2="50%">
      <stop offset="0%" stop-color="#fdba74"/>
      <stop offset="100%" stop-color="#ea580c"/>
    </linearGradient>
    <filter id="xb-glow" x="-20%" y="-20%" width="140%" height="140%">
      <feDropShadow dx="0" dy="1" stdDeviation="1" flood-color="#0f172a" flood-opacity="0.35"/>
    </filter>
  </defs>
  <rect width="48" height="48" rx="12" fill="#0f172a"/>
  <g opacity="0.22" stroke="#94a3b8" stroke-width="0.5">
    <path d="M6 12h36M6 24h36M6 36h36"/>
    <path d="M12 6v36M24 6v36M36 6v36"/>
  </g>
  <path d="M10 34 L24 10 L24 22 L17 34 Z" fill="url(#xb-wall)" filter="url(#xb-glow)"/>
  <path d="M38 34 L24 10 L24 22 L31 34 Z" fill="url(#xb-wall)" opacity="0.88" filter="url(#xb-glow)"/>
  <path d="M24 10 L30 16 L24 20 L18 16 Z" fill="url(#xb-beam)"/>
  <rect x="22" y="20" width="4" height="14" rx="1" fill="#f8fafc" opacity="0.92"/>
  <circle cx="24" cy="35" r="2.2" fill="#fbbf24"/>
</svg>
